<svg viewBox="0 0 200 200" xmlns="http://www.w3.org/2000/svg" role="img" aria-label="NCS — National Center for Studies">
  <defs>
    <clipPath id="ncs-clip">
      <rect x="8" y="8" width="184" height="184" rx="28"/>
    </clipPath>
  </defs>

  <!-- Outer dark frame -->
  <rect x="0" y="0" width="200" height="200" rx="32" fill="#0a0a0a"/>

  <!-- Inner white background -->
  <rect x="8" y="8" width="184" height="184" rx="28" fill="#fafafa"/>

  <g clip-path="url(#ncs-clip)">
    <!-- Red scribble brush strokes (top-left to center) -->
    <g stroke="#dc1f2c" stroke-linecap="round" fill="none">
      <path d="M 6 18 Q 60 12 130 6"   stroke-width="3"/>
      <path d="M 4 30 Q 50 25 115 14"  stroke-width="5"/>
      <path d="M 10 42 Q 55 36 120 22" stroke-width="4"/>
      <path d="M 6 54 Q 50 47 110 36"  stroke-width="6"/>
      <path d="M 14 66 Q 60 58 115 48" stroke-width="5"/>
      <path d="M 8 78 Q 52 70 108 60"  stroke-width="4"/>
      <path d="M 18 90 Q 55 82 100 73" stroke-width="3"/>
      <path d="M 12 102 Q 50 94 95 86" stroke-width="5"/>
      <path d="M 22 114 Q 55 106 92 100" stroke-width="3"/>
      <path d="M 8 126 Q 45 118 85 112" stroke-width="4"/>
      <path d="M 16 138 Q 48 132 80 128" stroke-width="2"/>
      <path d="M 10 150 Q 40 145 70 142" stroke-width="3"/>
      <path d="M 24 22 Q 70 14 140 4"  stroke-width="2"/>
      <path d="M 30 50 Q 62 42 100 38" stroke-width="2"/>
      <path d="M 30 80 Q 60 72 95 68"  stroke-width="2"/>
    </g>

    <!-- Black scribble brush strokes (bottom-right to center) -->
    <g stroke="#0a0a0a" stroke-linecap="round" fill="none">
      <path d="M 130 196 Q 165 180 196 158" stroke-width="3"/>
      <path d="M 115 195 Q 155 178 195 152" stroke-width="5"/>
      <path d="M 105 184 Q 148 166 195 142" stroke-width="4"/>
      <path d="M 95 172 Q 140 154 195 130"  stroke-width="6"/>
      <path d="M 88 158 Q 135 142 195 118"  stroke-width="5"/>
      <path d="M 92 144 Q 138 128 195 106"  stroke-width="4"/>
      <path d="M 100 132 Q 142 116 195 94"  stroke-width="3"/>
      <path d="M 108 120 Q 145 106 195 82"  stroke-width="5"/>
      <path d="M 116 110 Q 150 96 195 70"   stroke-width="3"/>
      <path d="M 124 100 Q 155 88 195 62"   stroke-width="4"/>
      <path d="M 132 92 Q 158 80 195 56"    stroke-width="2"/>
      <path d="M 140 84 Q 162 74 195 48"    stroke-width="3"/>
      <path d="M 148 76 Q 168 66 196 40"    stroke-width="2"/>
      <path d="M 70 178 Q 110 162 150 152"  stroke-width="2"/>
      <path d="M 105 150 Q 140 138 175 130" stroke-width="2"/>
    </g>
  </g>

  <!-- NCS text — white fill with thick black outline -->
  <text
    x="100" y="125"
    font-family="Inter, 'Helvetica Neue', system-ui, sans-serif"
    font-weight="900"
    font-size="66"
    fill="#ffffff"
    stroke="#0a0a0a"
    stroke-width="4"
    paint-order="stroke fill"
    stroke-linejoin="round"
    text-anchor="middle"
    letter-spacing="-2"
  >NCS</text>
</svg>
